<?xml version="1.0" encoding="UTF-8"?>
<!DOCTYPE svg PUBLIC "-//W3C//DTD SVG 1.1//EN" "http://www.w3.org/Graphics/SVG/1.1/DTD/svg11.dtd">
<svg version="1.1" xmlns="http://www.w3.org/2000/svg" xmlns:xlink="http://www.w3.org/1999/xlink" viewBox="0, 0, 181, 148.325">
  <g id="Layer_2" transform="translate(-765, -796)">
    <g id="Challengers">
      <path d="M815.5,796 C815.5,796 816,824 816,824 C816,824 832.5,841 832.5,840 C832.5,839 832.5,849 832.5,849 C832.5,849 849.5,863 849.5,863 C849.5,863 849.5,831 849.5,831 C849.5,831 815.5,796 815.5,796 z" fill="#b841e9"/>
      <path d="M852.5,917.351 L856.5,917.351 L867.5,905.351 L880.5,917.351 L854.42,944.325 L827.5,917.351 L840.5,905.351 L852.5,917.351 z" fill="#b841e9"/>
      <path d="M893,796 C893,796 893,823 893,823 C893,823 875.5,841 875.5,840 C875.5,839 875.5,849 875.5,849 C875.5,849 858.5,863 858.5,863 C858.5,863 858.5,831 858.5,831 C858.5,831 893,796 893,796 z" fill="#b841e9"/>
      <path d="M776.5,844 C776.5,844 776.5,869 776.5,869 C776.5,869 803.5,895 803.5,895 C803.5,895 815.5,882 815.5,882 C815.5,882 776.5,844 776.5,844 z" fill="#b841e9"/>
      <path d="M932,844 C932,844 932,869 932,869 C932,869 905,895 905,895 C905,895 893,882 893,882 C893,882 932,844 932,844 z" fill="#b841e9"/>
      <path d="M792,816 C792,816 765,815 765,815 C765,815 810,861 810,861 C810,861 810,867 810,867 C810,867 824,880 824,880 C824,880 824,885 824,885 C824,885 812,897 812,897 C812,897 812,926 812,926 C812,926 840,898 840,898 C840,898 854,909 854,909 C854,909 858,909 858,909 C858,909 869,898 869,898 C869,898 897,926 897,926 C897,926 898,897 898,897 C898,897 886,885 886,885 C886,885 886,881 886,881 C886,881 900,867 900,867 C900,867 900,862 900,862 C900,862 946,816 946,816 C946,816 919,816 919,816 C919,816 858,876 858,876 C858,876 858,898 858,898 C858,898 855,900 855,900 C855,900 852,898 852,898 C852,898 851,876 851,876 C851,876 791,816 792,816 z" fill="#b841e9"/>
    </g>
  </g>
</svg>
